<?xml version="1.0" standalone="no"?>
<!DOCTYPE svg PUBLIC "-//W3C//DTD SVG 20010904//EN"
 "http://www.w3.org/TR/2001/REC-SVG-20010904/DTD/svg10.dtd">
<svg version="1.0" xmlns="http://www.w3.org/2000/svg"
 width="187.000000pt" height="187.000000pt" viewBox="0 0 187.000000 187.000000"
 preserveAspectRatio="xMidYMid meet">
<metadata>
Created by potrace 1.14, written by Peter Selinger 2001-2017
</metadata>
<g transform="translate(0.000000,187.000000) scale(0.100000,-0.100000)"
fill="#000000" stroke="none">
<path d="M868 1842 c-10 -2 -18 -10 -18 -18 0 -8 -4 -13 -9 -10 -5 4 -11 1
-13 -5 -2 -7 -15 -12 -28 -13 -14 -1 -31 -5 -37 -9 -8 -5 -13 -3 -13 5 0 8 -3
9 -8 3 -10 -15 -44 -13 -60 2 -8 7 -18 10 -23 7 -6 -3 -22 -7 -37 -9 -14 -1
-28 -7 -30 -13 -2 -6 -10 -8 -19 -5 -10 4 -14 2 -9 -5 3 -6 2 -13 -4 -17 -6
-4 -7 -11 -4 -17 4 -6 3 -8 -3 -5 -5 4 -19 -2 -29 -12 -11 -10 -32 -21 -47
-25 -15 -3 -26 -10 -23 -14 6 -10 -48 -7 -64 3 -6 3 -9 3 -8 -2 2 -4 0 -8 -4
-8 -4 0 -14 -9 -23 -20 -9 -11 -13 -13 -9 -5 4 8 -6 2 -23 -15 -18 -19 -25
-33 -19 -37 7 -5 6 -8 -3 -8 -8 0 -11 -7 -8 -20 3 -10 2 -19 -2 -18 -18 2 -32
-3 -27 -10 13 -21 -56 -56 -73 -39 -7 7 -12 8 -11 2 5 -21 0 -36 -10 -30 -5 3
-15 -5 -21 -19 -7 -14 -16 -23 -21 -20 -5 3 -8 2 -7 -3 1 -4 1 -10 -1 -13 -8
-22 -8 -50 0 -45 7 4 7 -2 0 -19 -5 -14 -7 -26 -3 -26 4 0 -2 -6 -12 -14 -11
-8 -16 -19 -12 -30 4 -10 3 -15 -3 -11 -6 3 -10 -1 -10 -9 0 -9 -3 -15 -7 -15
-25 4 -43 -3 -43 -16 0 -9 -7 -18 -15 -21 -8 -4 -15 -10 -15 -16 0 -5 6 -6 13
-2 8 5 8 3 -2 -9 -8 -11 -11 -28 -7 -49 3 -18 7 -39 8 -45 1 -7 4 -13 7 -13 4
0 7 -13 7 -30 1 -16 -2 -28 -5 -25 -4 2 -7 -6 -6 -18 1 -12 -2 -27 -7 -33 -10
-14 0 -46 13 -38 5 3 6 -3 2 -12 -5 -12 -3 -15 6 -9 10 6 11 3 3 -12 -7 -13
-7 -25 1 -38 15 -28 18 -63 5 -71 -6 -4 -8 -2 -4 4 3 6 1 14 -5 18 -8 4 -9 3
-5 -4 4 -7 3 -12 -3 -12 -5 0 -12 8 -14 17 -4 14 -5 12 -6 -4 -1 -14 5 -23 14
-23 8 0 15 -5 15 -11 0 -5 4 -8 8 -5 7 4 12 -26 15 -81 0 -7 4 -13 8 -13 4 0
6 -8 4 -17 -2 -10 -4 -22 -4 -26 -1 -5 -5 -6 -10 -3 -5 4 -7 -3 -4 -14 3 -11
10 -20 17 -20 6 0 4 -5 -4 -10 -10 -6 -11 -10 -2 -10 6 0 12 -8 12 -18 0 -10
9 -24 19 -32 11 -7 18 -17 15 -21 -2 -4 7 -6 21 -4 16 1 25 -3 25 -11 0 -8 5
-14 10 -14 6 0 10 -7 10 -15 0 -8 4 -15 10 -15 5 0 9 -3 9 -7 -1 -5 -1 -20 0
-35 1 -32 64 -103 82 -92 7 4 9 3 5 -4 -3 -6 -2 -13 4 -17 5 -3 10 0 10 7 0 8
3 9 8 3 4 -6 17 -10 30 -9 12 1 21 -1 18 -3 -9 -9 29 -39 43 -35 9 4 12 1 7
-6 -4 -7 -1 -12 7 -12 7 0 21 -16 30 -35 20 -41 88 -77 133 -69 16 3 30 7 32
9 2 2 18 -1 35 -7 18 -5 38 -10 45 -12 15 -3 43 -41 37 -50 -3 -3 -2 -4 1 -1
4 2 16 0 27 -6 10 -6 17 -7 14 -2 -4 5 0 10 8 10 8 0 12 -4 10 -8 -6 -8 61
-10 88 -3 9 3 15 9 12 14 -3 5 -1 11 5 15 5 3 10 0 10 -7 0 -8 3 -9 8 -3 4 6
25 10 47 10 22 -1 43 3 47 9 5 7 8 6 8 -3 0 -10 3 -11 13 -3 10 8 18 5 31 -13
15 -20 22 -23 32 -14 11 9 14 8 14 0 0 -7 5 -9 13 -4 6 4 14 8 17 9 56 10 79
18 74 25 -12 20 93 89 110 71 3 -3 6 0 6 8 0 10 3 10 15 0 8 -6 19 -9 25 -5 5
3 10 1 10 -6 0 -9 4 -9 15 1 8 6 18 9 24 6 5 -3 12 1 15 10 3 8 10 12 16 9 5
-3 10 -1 10 5 0 6 4 9 9 5 6 -3 8 4 6 15 -2 11 1 20 7 20 6 0 9 3 6 6 -10 9
61 76 72 69 6 -4 10 -3 9 2 -4 20 2 24 18 12 11 -10 14 -10 9 -1 -4 7 -1 12 8
13 35 3 41 5 39 17 -2 7 0 11 5 11 19 -3 33 2 27 11 -3 6 -2 10 2 10 5 0 14
14 21 32 9 25 9 35 -1 47 -9 12 -9 13 1 7 7 -4 12 -1 12 9 0 9 4 13 10 10 6
-3 7 1 4 9 -3 9 -1 16 6 16 6 0 8 5 5 10 -3 6 -1 10 6 10 7 0 10 3 6 6 -6 7
29 49 42 49 14 0 41 33 41 50 0 11 5 15 14 12 10 -4 13 -1 9 8 -3 8 -10 12
-16 8 -6 -3 -7 -1 -3 5 4 7 14 12 22 12 11 0 10 5 -6 22 -20 22 -22 50 -6 77
7 11 6 12 -5 6 -11 -7 -12 -6 -2 7 7 8 10 18 7 21 -4 4 5 11 20 16 25 10 26
14 26 80 0 62 -2 70 -17 64 -11 -4 -14 -3 -9 5 4 7 2 12 -5 12 -7 0 -10 11 -7
29 3 18 0 28 -6 24 -5 -4 -7 0 -3 10 3 9 1 18 -6 21 -7 2 -5 5 5 5 9 1 20 6
24 13 5 7 3 8 -6 3 -8 -5 -11 -3 -8 6 3 8 13 12 23 11 17 -3 17 -2 4 15 -7 10
-18 21 -24 25 -6 5 -5 8 3 8 6 0 12 5 12 11 0 5 -4 7 -10 4 -10 -6 -11 -2 -14
33 -1 24 -18 40 -38 36 -10 -1 -18 2 -18 8 0 6 -8 20 -17 31 -10 11 -12 17 -6
13 9 -5 11 -2 7 8 -3 9 -10 16 -15 16 -4 0 -7 21 -5 46 2 32 -1 47 -11 51 -11
4 -12 8 -3 13 9 5 6 10 -9 15 -12 3 -19 11 -16 16 5 8 -16 14 -37 10 -5 0 -8
4 -8 10 0 6 -9 8 -20 4 -16 -5 -19 -3 -13 11 5 14 3 16 -11 11 -9 -4 -15 -3
-12 2 3 5 -5 19 -18 32 -20 19 -22 27 -14 44 6 11 7 17 3 13 -9 -8 -35 15 -35
31 0 6 -3 10 -7 10 -20 -3 -34 2 -28 11 4 6 -1 7 -11 3 -11 -4 -15 -2 -11 4 4
6 -3 10 -16 10 -49 -1 -68 3 -62 13 3 5 0 7 -8 4 -8 -3 -18 0 -22 5 -3 6 -11
9 -16 6 -5 -4 -9 -1 -9 5 0 6 -11 15 -25 22 -13 6 -23 14 -21 17 2 3 -2 12
-10 19 -8 7 -14 10 -14 6 0 -3 -12 1 -26 11 -14 9 -37 15 -49 13 -18 -4 -22
-1 -17 11 5 13 3 14 -10 4 -8 -7 -19 -9 -23 -5 -5 4 -5 1 -1 -5 4 -7 2 -14 -3
-14 -6 -1 -17 -2 -23 -3 -7 -1 -19 2 -25 7 -7 5 -13 6 -13 2 0 -4 -7 -2 -15 5
-12 10 -15 10 -15 -1 0 -11 -2 -11 -10 1 -8 12 -10 12 -10 1 0 -11 -3 -11 -15
-1 -8 6 -20 8 -26 4 -8 -4 -9 -3 -5 4 4 7 2 12 -3 12 -6 0 -11 6 -11 13 0 13
-59 18 -102 9z"/>
</g>
</svg>
